<mxfile host="app.diagrams.net" modified="2022-12-03T17:22:14.062Z" agent="5.0 (Windows NT 10.0; Win64; x64) AppleWebKit/537.36 (KHTML, like Gecko) Chrome/107.0.0.0 Safari/537.36" version="20.6.0" etag="s6v8FBsr8fpfklyuwWY3" type="github">
  <diagram id="S_JMII3vxkH46qChRmbv" name="Page-1">
    <mxGraphModel dx="1157" dy="600" grid="1" gridSize="10" guides="1" tooltips="1" connect="1" arrows="1" fold="1" page="1" pageScale="1" pageWidth="850" pageHeight="1100" math="0" shadow="0">
      <root>
        <mxCell id="0" />
        <mxCell id="1" parent="0" />
        <mxCell id="u2r7xHkPpifheEgDaBbK-1" value="Client" style="rounded=0;whiteSpace=wrap;html=1;" vertex="1" parent="1">
          <mxGeometry x="190" y="40" width="120" height="60" as="geometry" />
        </mxCell>
        <mxCell id="u2r7xHkPpifheEgDaBbK-2" value="Sever" style="rounded=0;whiteSpace=wrap;html=1;" vertex="1" parent="1">
          <mxGeometry x="454.27" y="40" width="120" height="60" as="geometry" />
        </mxCell>
        <mxCell id="u2r7xHkPpifheEgDaBbK-3" value="Database" style="rounded=0;whiteSpace=wrap;html=1;" vertex="1" parent="1">
          <mxGeometry x="700" y="40" width="120" height="60" as="geometry" />
        </mxCell>
        <mxCell id="u2r7xHkPpifheEgDaBbK-4" value="" style="edgeStyle=orthogonalEdgeStyle;rounded=0;orthogonalLoop=1;jettySize=auto;html=1;entryX=0;entryY=0.5;entryDx=0;entryDy=0;" edge="1" parent="1" source="u2r7xHkPpifheEgDaBbK-5" target="u2r7xHkPpifheEgDaBbK-10">
          <mxGeometry relative="1" as="geometry">
            <mxPoint x="245" y="180" as="targetPoint" />
          </mxGeometry>
        </mxCell>
        <mxCell id="u2r7xHkPpifheEgDaBbK-5" value="" style="ellipse;fillColor=strokeColor;" vertex="1" parent="1">
          <mxGeometry x="100" y="125" width="30" height="30" as="geometry" />
        </mxCell>
        <mxCell id="u2r7xHkPpifheEgDaBbK-6" style="edgeStyle=orthogonalEdgeStyle;rounded=0;orthogonalLoop=1;jettySize=auto;html=1;entryX=0;entryY=0.328;entryDx=0;entryDy=0;entryPerimeter=0;" edge="1" parent="1" source="u2r7xHkPpifheEgDaBbK-8" target="u2r7xHkPpifheEgDaBbK-21">
          <mxGeometry relative="1" as="geometry">
            <mxPoint x="250" y="330" as="targetPoint" />
            <Array as="points">
              <mxPoint x="160" y="260" />
              <mxPoint x="160" y="330" />
            </Array>
          </mxGeometry>
        </mxCell>
        <mxCell id="u2r7xHkPpifheEgDaBbK-7" style="edgeStyle=orthogonalEdgeStyle;rounded=0;orthogonalLoop=1;jettySize=auto;html=1;entryX=0.011;entryY=0.661;entryDx=0;entryDy=0;entryPerimeter=0;" edge="1" parent="1" source="u2r7xHkPpifheEgDaBbK-8" target="u2r7xHkPpifheEgDaBbK-19">
          <mxGeometry relative="1" as="geometry">
            <Array as="points">
              <mxPoint x="170" y="290" />
            </Array>
          </mxGeometry>
        </mxCell>
        <mxCell id="u2r7xHkPpifheEgDaBbK-8" value="" style="html=1;points=[];perimeter=orthogonalPerimeter;fillColor=strokeColor;rotation=90;" vertex="1" parent="1">
          <mxGeometry x="150" y="220" width="5" height="80" as="geometry" />
        </mxCell>
        <mxCell id="u2r7xHkPpifheEgDaBbK-9" style="edgeStyle=orthogonalEdgeStyle;rounded=0;orthogonalLoop=1;jettySize=auto;html=1;" edge="1" parent="1" target="u2r7xHkPpifheEgDaBbK-12">
          <mxGeometry relative="1" as="geometry">
            <mxPoint x="239.26999999999998" y="140" as="sourcePoint" />
          </mxGeometry>
        </mxCell>
        <mxCell id="u2r7xHkPpifheEgDaBbK-10" value="Show Login" style="rounded=1;whiteSpace=wrap;html=1;" vertex="1" parent="1">
          <mxGeometry x="210" y="120" width="80" height="40" as="geometry" />
        </mxCell>
        <mxCell id="u2r7xHkPpifheEgDaBbK-11" value="" style="edgeStyle=orthogonalEdgeStyle;rounded=0;orthogonalLoop=1;jettySize=auto;html=1;entryX=1;entryY=0.5;entryDx=0;entryDy=0;" edge="1" parent="1" source="u2r7xHkPpifheEgDaBbK-12" target="u2r7xHkPpifheEgDaBbK-31">
          <mxGeometry relative="1" as="geometry">
            <Array as="points">
              <mxPoint x="570" y="210" />
            </Array>
          </mxGeometry>
        </mxCell>
        <mxCell id="u2r7xHkPpifheEgDaBbK-12" value="verify user name and passowrd" style="whiteSpace=wrap;html=1;rounded=1;" vertex="1" parent="1">
          <mxGeometry x="464.27" y="120" width="110" height="40" as="geometry" />
        </mxCell>
        <mxCell id="u2r7xHkPpifheEgDaBbK-13" value="" style="endArrow=none;html=1;rounded=0;" edge="1" parent="1">
          <mxGeometry width="50" height="50" relative="1" as="geometry">
            <mxPoint x="400" y="1250" as="sourcePoint" />
            <mxPoint x="400" y="40" as="targetPoint" />
          </mxGeometry>
        </mxCell>
        <mxCell id="u2r7xHkPpifheEgDaBbK-14" value="" style="endArrow=none;html=1;rounded=0;" edge="1" parent="1">
          <mxGeometry width="50" height="50" relative="1" as="geometry">
            <mxPoint x="650" y="1250" as="sourcePoint" />
            <mxPoint x="650" y="40" as="targetPoint" />
          </mxGeometry>
        </mxCell>
        <mxCell id="u2r7xHkPpifheEgDaBbK-15" style="edgeStyle=orthogonalEdgeStyle;rounded=0;orthogonalLoop=1;jettySize=auto;html=1;exitX=0.038;exitY=0.498;exitDx=0;exitDy=0;exitPerimeter=0;" edge="1" parent="1" source="u2r7xHkPpifheEgDaBbK-31">
          <mxGeometry relative="1" as="geometry">
            <mxPoint x="484.27" y="220" as="sourcePoint" />
            <mxPoint x="250" y="160" as="targetPoint" />
            <Array as="points">
              <mxPoint x="250" y="210" />
              <mxPoint x="250" y="160" />
            </Array>
          </mxGeometry>
        </mxCell>
        <mxCell id="u2r7xHkPpifheEgDaBbK-16" value="no" style="edgeLabel;html=1;align=center;verticalAlign=middle;resizable=0;points=[];" vertex="1" connectable="0" parent="u2r7xHkPpifheEgDaBbK-15">
          <mxGeometry x="-0.6255" y="-2" relative="1" as="geometry">
            <mxPoint as="offset" />
          </mxGeometry>
        </mxCell>
        <mxCell id="u2r7xHkPpifheEgDaBbK-17" style="edgeStyle=orthogonalEdgeStyle;rounded=0;orthogonalLoop=1;jettySize=auto;html=1;exitX=0.504;exitY=0.94;exitDx=0;exitDy=0;exitPerimeter=0;entryX=0.167;entryY=0.402;entryDx=0;entryDy=0;entryPerimeter=0;" edge="1" parent="1" source="u2r7xHkPpifheEgDaBbK-31" target="u2r7xHkPpifheEgDaBbK-8">
          <mxGeometry relative="1" as="geometry">
            <mxPoint x="514.31" y="249.96000000000004" as="sourcePoint" />
            <mxPoint x="110.0099999999999" y="255.42999999999995" as="targetPoint" />
            <Array as="points">
              <mxPoint x="520" y="240" />
              <mxPoint x="160" y="240" />
            </Array>
          </mxGeometry>
        </mxCell>
        <mxCell id="u2r7xHkPpifheEgDaBbK-18" value="yes" style="edgeLabel;html=1;align=center;verticalAlign=middle;resizable=0;points=[];" vertex="1" connectable="0" parent="u2r7xHkPpifheEgDaBbK-17">
          <mxGeometry x="-0.5837" y="-2" relative="1" as="geometry">
            <mxPoint as="offset" />
          </mxGeometry>
        </mxCell>
        <mxCell id="u2r7xHkPpifheEgDaBbK-19" value="Show top-up list" style="rounded=1;whiteSpace=wrap;html=1;" vertex="1" parent="1">
          <mxGeometry x="260" y="270" width="120" height="30" as="geometry" />
        </mxCell>
        <mxCell id="u2r7xHkPpifheEgDaBbK-20" value="" style="edgeStyle=orthogonalEdgeStyle;rounded=0;orthogonalLoop=1;jettySize=auto;html=1;" edge="1" parent="1" source="u2r7xHkPpifheEgDaBbK-21" target="u2r7xHkPpifheEgDaBbK-23">
          <mxGeometry relative="1" as="geometry" />
        </mxCell>
        <mxCell id="u2r7xHkPpifheEgDaBbK-21" value="Show add Topup" style="rounded=1;whiteSpace=wrap;html=1;" vertex="1" parent="1">
          <mxGeometry x="260" y="320" width="120" height="30" as="geometry" />
        </mxCell>
        <mxCell id="u2r7xHkPpifheEgDaBbK-22" value="" style="edgeStyle=orthogonalEdgeStyle;rounded=0;orthogonalLoop=1;jettySize=auto;html=1;" edge="1" parent="1" source="u2r7xHkPpifheEgDaBbK-23" target="u2r7xHkPpifheEgDaBbK-25">
          <mxGeometry relative="1" as="geometry" />
        </mxCell>
        <mxCell id="u2r7xHkPpifheEgDaBbK-23" value="Fill require and select information" style="whiteSpace=wrap;html=1;rounded=1;" vertex="1" parent="1">
          <mxGeometry x="260" y="370" width="120" height="30" as="geometry" />
        </mxCell>
        <mxCell id="u2r7xHkPpifheEgDaBbK-24" value="" style="edgeStyle=orthogonalEdgeStyle;rounded=0;orthogonalLoop=1;jettySize=auto;html=1;" edge="1" parent="1" source="u2r7xHkPpifheEgDaBbK-25" target="u2r7xHkPpifheEgDaBbK-30">
          <mxGeometry relative="1" as="geometry" />
        </mxCell>
        <mxCell id="u2r7xHkPpifheEgDaBbK-25" value="Validate information" style="whiteSpace=wrap;html=1;rounded=1;" vertex="1" parent="1">
          <mxGeometry x="460" y="370" width="120" height="30" as="geometry" />
        </mxCell>
        <mxCell id="u2r7xHkPpifheEgDaBbK-26" value="" style="edgeStyle=orthogonalEdgeStyle;rounded=0;orthogonalLoop=1;jettySize=auto;html=1;" edge="1" parent="1" source="u2r7xHkPpifheEgDaBbK-30" target="u2r7xHkPpifheEgDaBbK-33">
          <mxGeometry relative="1" as="geometry">
            <Array as="points">
              <mxPoint x="450" y="460" />
              <mxPoint x="450" y="460" />
            </Array>
          </mxGeometry>
        </mxCell>
        <mxCell id="u2r7xHkPpifheEgDaBbK-27" value="no" style="edgeLabel;html=1;align=center;verticalAlign=middle;resizable=0;points=[];" vertex="1" connectable="0" parent="u2r7xHkPpifheEgDaBbK-26">
          <mxGeometry x="-0.6667" relative="1" as="geometry">
            <mxPoint x="-1" y="-2" as="offset" />
          </mxGeometry>
        </mxCell>
        <mxCell id="u2r7xHkPpifheEgDaBbK-28" value="" style="edgeStyle=orthogonalEdgeStyle;rounded=0;orthogonalLoop=1;jettySize=auto;html=1;" edge="1" parent="1" source="u2r7xHkPpifheEgDaBbK-30" target="u2r7xHkPpifheEgDaBbK-35">
          <mxGeometry relative="1" as="geometry" />
        </mxCell>
        <mxCell id="u2r7xHkPpifheEgDaBbK-29" value="yes" style="edgeLabel;html=1;align=center;verticalAlign=middle;resizable=0;points=[];" vertex="1" connectable="0" parent="u2r7xHkPpifheEgDaBbK-28">
          <mxGeometry x="-0.8632" y="-2" relative="1" as="geometry">
            <mxPoint x="7" y="-3" as="offset" />
          </mxGeometry>
        </mxCell>
        <mxCell id="u2r7xHkPpifheEgDaBbK-30" value="Valid ?" style="rhombus;whiteSpace=wrap;html=1;rounded=1;" vertex="1" parent="1">
          <mxGeometry x="490" y="430" width="60" height="60" as="geometry" />
        </mxCell>
        <mxCell id="u2r7xHkPpifheEgDaBbK-31" value="Valid ?" style="rhombus;whiteSpace=wrap;html=1;rounded=1;" vertex="1" parent="1">
          <mxGeometry x="489.27" y="180" width="60" height="60" as="geometry" />
        </mxCell>
        <mxCell id="u2r7xHkPpifheEgDaBbK-32" style="edgeStyle=orthogonalEdgeStyle;rounded=0;orthogonalLoop=1;jettySize=auto;html=1;entryX=1;entryY=0.5;entryDx=0;entryDy=0;" edge="1" parent="1" source="u2r7xHkPpifheEgDaBbK-33" target="u2r7xHkPpifheEgDaBbK-44">
          <mxGeometry relative="1" as="geometry" />
        </mxCell>
        <mxCell id="u2r7xHkPpifheEgDaBbK-33" value="show error message" style="whiteSpace=wrap;html=1;rounded=1;" vertex="1" parent="1">
          <mxGeometry x="260" y="440" width="120" height="40" as="geometry" />
        </mxCell>
        <mxCell id="u2r7xHkPpifheEgDaBbK-34" value="" style="edgeStyle=orthogonalEdgeStyle;rounded=0;orthogonalLoop=1;jettySize=auto;html=1;exitX=0.5;exitY=1;exitDx=0;exitDy=0;" edge="1" parent="1" source="u2r7xHkPpifheEgDaBbK-35" target="u2r7xHkPpifheEgDaBbK-40">
          <mxGeometry relative="1" as="geometry">
            <mxPoint x="800" y="390" as="sourcePoint" />
            <Array as="points">
              <mxPoint x="770" y="530" />
            </Array>
          </mxGeometry>
        </mxCell>
        <mxCell id="u2r7xHkPpifheEgDaBbK-35" value="save customer information" style="whiteSpace=wrap;html=1;rounded=1;" vertex="1" parent="1">
          <mxGeometry x="720" y="440" width="100" height="40" as="geometry" />
        </mxCell>
        <mxCell id="u2r7xHkPpifheEgDaBbK-36" value="" style="edgeStyle=orthogonalEdgeStyle;rounded=0;orthogonalLoop=1;jettySize=auto;html=1;" edge="1" parent="1" source="u2r7xHkPpifheEgDaBbK-40" target="u2r7xHkPpifheEgDaBbK-41">
          <mxGeometry relative="1" as="geometry" />
        </mxCell>
        <mxCell id="u2r7xHkPpifheEgDaBbK-37" value="fail" style="edgeLabel;html=1;align=center;verticalAlign=middle;resizable=0;points=[];" vertex="1" connectable="0" parent="u2r7xHkPpifheEgDaBbK-36">
          <mxGeometry x="-0.6727" y="-1" relative="1" as="geometry">
            <mxPoint as="offset" />
          </mxGeometry>
        </mxCell>
        <mxCell id="u2r7xHkPpifheEgDaBbK-38" value="" style="edgeStyle=orthogonalEdgeStyle;rounded=0;orthogonalLoop=1;jettySize=auto;html=1;exitX=0.5;exitY=1;exitDx=0;exitDy=0;" edge="1" parent="1" source="u2r7xHkPpifheEgDaBbK-40" target="u2r7xHkPpifheEgDaBbK-43">
          <mxGeometry relative="1" as="geometry">
            <mxPoint x="520" y="420" as="sourcePoint" />
            <Array as="points">
              <mxPoint x="520" y="580" />
            </Array>
          </mxGeometry>
        </mxCell>
        <mxCell id="u2r7xHkPpifheEgDaBbK-39" value="success" style="edgeLabel;html=1;align=center;verticalAlign=middle;resizable=0;points=[];" vertex="1" connectable="0" parent="u2r7xHkPpifheEgDaBbK-38">
          <mxGeometry x="-0.6718" relative="1" as="geometry">
            <mxPoint x="-34" y="-2" as="offset" />
          </mxGeometry>
        </mxCell>
        <mxCell id="u2r7xHkPpifheEgDaBbK-40" value="saved ?" style="rhombus;whiteSpace=wrap;html=1;rounded=1;" vertex="1" parent="1">
          <mxGeometry x="490" y="500" width="60" height="60" as="geometry" />
        </mxCell>
        <mxCell id="u2r7xHkPpifheEgDaBbK-41" value="show error message" style="whiteSpace=wrap;html=1;rounded=1;" vertex="1" parent="1">
          <mxGeometry x="260" y="510" width="120" height="40" as="geometry" />
        </mxCell>
        <mxCell id="u2r7xHkPpifheEgDaBbK-42" style="edgeStyle=orthogonalEdgeStyle;rounded=0;orthogonalLoop=1;jettySize=auto;html=1;" edge="1" parent="1" source="u2r7xHkPpifheEgDaBbK-43" target="u2r7xHkPpifheEgDaBbK-47">
          <mxGeometry relative="1" as="geometry" />
        </mxCell>
        <mxCell id="u2r7xHkPpifheEgDaBbK-43" value="Show&amp;nbsp; success message" style="whiteSpace=wrap;html=1;rounded=1;" vertex="1" parent="1">
          <mxGeometry x="260" y="560" width="120" height="40" as="geometry" />
        </mxCell>
        <mxCell id="u2r7xHkPpifheEgDaBbK-44" value="" style="shape=sumEllipse;perimeter=ellipsePerimeter;whiteSpace=wrap;html=1;backgroundOutline=1;" vertex="1" parent="1">
          <mxGeometry x="190" y="445" width="30" height="30" as="geometry" />
        </mxCell>
        <mxCell id="u2r7xHkPpifheEgDaBbK-45" style="edgeStyle=orthogonalEdgeStyle;rounded=0;orthogonalLoop=1;jettySize=auto;html=1;entryX=1;entryY=0.5;entryDx=0;entryDy=0;" edge="1" parent="1" target="u2r7xHkPpifheEgDaBbK-46">
          <mxGeometry relative="1" as="geometry">
            <mxPoint x="260" y="530" as="sourcePoint" />
          </mxGeometry>
        </mxCell>
        <mxCell id="u2r7xHkPpifheEgDaBbK-46" value="" style="shape=sumEllipse;perimeter=ellipsePerimeter;whiteSpace=wrap;html=1;backgroundOutline=1;" vertex="1" parent="1">
          <mxGeometry x="190" y="515" width="30" height="30" as="geometry" />
        </mxCell>
        <mxCell id="u2r7xHkPpifheEgDaBbK-47" value="" style="ellipse;html=1;shape=endState;fillColor=strokeColor;" vertex="1" parent="1">
          <mxGeometry x="190" y="565" width="30" height="30" as="geometry" />
        </mxCell>
        <mxCell id="u2r7xHkPpifheEgDaBbK-48" style="edgeStyle=orthogonalEdgeStyle;rounded=0;orthogonalLoop=1;jettySize=auto;html=1;entryX=0;entryY=0.5;entryDx=0;entryDy=0;" edge="1" parent="1">
          <mxGeometry relative="1" as="geometry">
            <mxPoint x="150" y="263" as="sourcePoint" />
            <mxPoint x="260" y="635" as="targetPoint" />
            <Array as="points">
              <mxPoint x="150" y="264" />
              <mxPoint x="150" y="635" />
            </Array>
          </mxGeometry>
        </mxCell>
        <mxCell id="u2r7xHkPpifheEgDaBbK-49" value="" style="edgeStyle=orthogonalEdgeStyle;rounded=0;orthogonalLoop=1;jettySize=auto;html=1;" edge="1" parent="1" source="u2r7xHkPpifheEgDaBbK-50" target="u2r7xHkPpifheEgDaBbK-52">
          <mxGeometry relative="1" as="geometry" />
        </mxCell>
        <mxCell id="u2r7xHkPpifheEgDaBbK-50" value="update information" style="whiteSpace=wrap;html=1;rounded=1;" vertex="1" parent="1">
          <mxGeometry x="260" y="670" width="120" height="30" as="geometry" />
        </mxCell>
        <mxCell id="u2r7xHkPpifheEgDaBbK-51" value="" style="edgeStyle=orthogonalEdgeStyle;rounded=0;orthogonalLoop=1;jettySize=auto;html=1;" edge="1" parent="1" source="u2r7xHkPpifheEgDaBbK-52" target="u2r7xHkPpifheEgDaBbK-57">
          <mxGeometry relative="1" as="geometry" />
        </mxCell>
        <mxCell id="u2r7xHkPpifheEgDaBbK-52" value="Validate information" style="whiteSpace=wrap;html=1;rounded=1;" vertex="1" parent="1">
          <mxGeometry x="460" y="670" width="120" height="30" as="geometry" />
        </mxCell>
        <mxCell id="u2r7xHkPpifheEgDaBbK-53" value="" style="edgeStyle=orthogonalEdgeStyle;rounded=0;orthogonalLoop=1;jettySize=auto;html=1;" edge="1" parent="1" source="u2r7xHkPpifheEgDaBbK-57" target="u2r7xHkPpifheEgDaBbK-59">
          <mxGeometry relative="1" as="geometry">
            <Array as="points">
              <mxPoint x="450" y="750" />
              <mxPoint x="450" y="750" />
            </Array>
          </mxGeometry>
        </mxCell>
        <mxCell id="u2r7xHkPpifheEgDaBbK-54" value="no" style="edgeLabel;html=1;align=center;verticalAlign=middle;resizable=0;points=[];" vertex="1" connectable="0" parent="u2r7xHkPpifheEgDaBbK-53">
          <mxGeometry x="-0.6667" relative="1" as="geometry">
            <mxPoint x="-1" y="-2" as="offset" />
          </mxGeometry>
        </mxCell>
        <mxCell id="u2r7xHkPpifheEgDaBbK-55" value="" style="edgeStyle=orthogonalEdgeStyle;rounded=0;orthogonalLoop=1;jettySize=auto;html=1;" edge="1" parent="1" source="u2r7xHkPpifheEgDaBbK-57" target="u2r7xHkPpifheEgDaBbK-61">
          <mxGeometry relative="1" as="geometry" />
        </mxCell>
        <mxCell id="u2r7xHkPpifheEgDaBbK-56" value="yes" style="edgeLabel;html=1;align=center;verticalAlign=middle;resizable=0;points=[];" vertex="1" connectable="0" parent="u2r7xHkPpifheEgDaBbK-55">
          <mxGeometry x="-0.8632" y="-2" relative="1" as="geometry">
            <mxPoint x="7" y="-3" as="offset" />
          </mxGeometry>
        </mxCell>
        <mxCell id="u2r7xHkPpifheEgDaBbK-57" value="Valid ?" style="rhombus;whiteSpace=wrap;html=1;rounded=1;" vertex="1" parent="1">
          <mxGeometry x="490" y="720" width="60" height="60" as="geometry" />
        </mxCell>
        <mxCell id="u2r7xHkPpifheEgDaBbK-58" style="edgeStyle=orthogonalEdgeStyle;rounded=0;orthogonalLoop=1;jettySize=auto;html=1;entryX=1;entryY=0.5;entryDx=0;entryDy=0;" edge="1" parent="1" source="u2r7xHkPpifheEgDaBbK-59" target="u2r7xHkPpifheEgDaBbK-70">
          <mxGeometry relative="1" as="geometry" />
        </mxCell>
        <mxCell id="u2r7xHkPpifheEgDaBbK-59" value="show error message" style="whiteSpace=wrap;html=1;rounded=1;" vertex="1" parent="1">
          <mxGeometry x="260" y="730" width="120" height="40" as="geometry" />
        </mxCell>
        <mxCell id="u2r7xHkPpifheEgDaBbK-60" value="" style="edgeStyle=orthogonalEdgeStyle;rounded=0;orthogonalLoop=1;jettySize=auto;html=1;exitX=0.5;exitY=1;exitDx=0;exitDy=0;entryX=0.846;entryY=0.5;entryDx=0;entryDy=0;entryPerimeter=0;" edge="1" parent="1" source="u2r7xHkPpifheEgDaBbK-61" target="u2r7xHkPpifheEgDaBbK-66">
          <mxGeometry relative="1" as="geometry">
            <mxPoint x="800" y="680" as="sourcePoint" />
            <Array as="points">
              <mxPoint x="770" y="810" />
            </Array>
          </mxGeometry>
        </mxCell>
        <mxCell id="u2r7xHkPpifheEgDaBbK-61" value="update customer information" style="whiteSpace=wrap;html=1;rounded=1;" vertex="1" parent="1">
          <mxGeometry x="720" y="730" width="100" height="40" as="geometry" />
        </mxCell>
        <mxCell id="u2r7xHkPpifheEgDaBbK-62" value="" style="edgeStyle=orthogonalEdgeStyle;rounded=0;orthogonalLoop=1;jettySize=auto;html=1;" edge="1" parent="1" source="u2r7xHkPpifheEgDaBbK-66" target="u2r7xHkPpifheEgDaBbK-67">
          <mxGeometry relative="1" as="geometry" />
        </mxCell>
        <mxCell id="u2r7xHkPpifheEgDaBbK-63" value="fail" style="edgeLabel;html=1;align=center;verticalAlign=middle;resizable=0;points=[];" vertex="1" connectable="0" parent="u2r7xHkPpifheEgDaBbK-62">
          <mxGeometry x="-0.6727" y="-1" relative="1" as="geometry">
            <mxPoint as="offset" />
          </mxGeometry>
        </mxCell>
        <mxCell id="u2r7xHkPpifheEgDaBbK-64" value="" style="edgeStyle=orthogonalEdgeStyle;rounded=0;orthogonalLoop=1;jettySize=auto;html=1;exitX=0.5;exitY=1;exitDx=0;exitDy=0;" edge="1" parent="1" source="u2r7xHkPpifheEgDaBbK-66" target="u2r7xHkPpifheEgDaBbK-69">
          <mxGeometry relative="1" as="geometry">
            <mxPoint x="520" y="710" as="sourcePoint" />
            <Array as="points">
              <mxPoint x="520" y="870" />
            </Array>
          </mxGeometry>
        </mxCell>
        <mxCell id="u2r7xHkPpifheEgDaBbK-65" value="success" style="edgeLabel;html=1;align=center;verticalAlign=middle;resizable=0;points=[];" vertex="1" connectable="0" parent="u2r7xHkPpifheEgDaBbK-64">
          <mxGeometry x="-0.6718" relative="1" as="geometry">
            <mxPoint x="-34" as="offset" />
          </mxGeometry>
        </mxCell>
        <mxCell id="u2r7xHkPpifheEgDaBbK-66" value="saved ?" style="rhombus;whiteSpace=wrap;html=1;rounded=1;" vertex="1" parent="1">
          <mxGeometry x="489.27" y="780" width="60" height="60" as="geometry" />
        </mxCell>
        <mxCell id="u2r7xHkPpifheEgDaBbK-67" value="show error message" style="whiteSpace=wrap;html=1;rounded=1;" vertex="1" parent="1">
          <mxGeometry x="259.27" y="790" width="120" height="40" as="geometry" />
        </mxCell>
        <mxCell id="u2r7xHkPpifheEgDaBbK-68" style="edgeStyle=orthogonalEdgeStyle;rounded=0;orthogonalLoop=1;jettySize=auto;html=1;" edge="1" parent="1" source="u2r7xHkPpifheEgDaBbK-69" target="u2r7xHkPpifheEgDaBbK-73">
          <mxGeometry relative="1" as="geometry" />
        </mxCell>
        <mxCell id="u2r7xHkPpifheEgDaBbK-69" value="Show&amp;nbsp; success message" style="whiteSpace=wrap;html=1;rounded=1;" vertex="1" parent="1">
          <mxGeometry x="260" y="850" width="120" height="40" as="geometry" />
        </mxCell>
        <mxCell id="u2r7xHkPpifheEgDaBbK-70" value="" style="shape=sumEllipse;perimeter=ellipsePerimeter;whiteSpace=wrap;html=1;backgroundOutline=1;" vertex="1" parent="1">
          <mxGeometry x="190" y="735" width="30" height="30" as="geometry" />
        </mxCell>
        <mxCell id="u2r7xHkPpifheEgDaBbK-71" style="edgeStyle=orthogonalEdgeStyle;rounded=0;orthogonalLoop=1;jettySize=auto;html=1;entryX=1;entryY=0.5;entryDx=0;entryDy=0;exitX=0;exitY=0.5;exitDx=0;exitDy=0;" edge="1" parent="1" source="u2r7xHkPpifheEgDaBbK-67" target="u2r7xHkPpifheEgDaBbK-72">
          <mxGeometry relative="1" as="geometry">
            <mxPoint x="260.0000000000002" y="820" as="sourcePoint" />
          </mxGeometry>
        </mxCell>
        <mxCell id="u2r7xHkPpifheEgDaBbK-72" value="" style="shape=sumEllipse;perimeter=ellipsePerimeter;whiteSpace=wrap;html=1;backgroundOutline=1;" vertex="1" parent="1">
          <mxGeometry x="189.27" y="795" width="30" height="30" as="geometry" />
        </mxCell>
        <mxCell id="u2r7xHkPpifheEgDaBbK-73" value="" style="ellipse;html=1;shape=endState;fillColor=strokeColor;" vertex="1" parent="1">
          <mxGeometry x="190" y="855" width="30" height="30" as="geometry" />
        </mxCell>
        <mxCell id="u2r7xHkPpifheEgDaBbK-74" style="edgeStyle=orthogonalEdgeStyle;rounded=0;orthogonalLoop=1;jettySize=auto;html=1;entryX=0.5;entryY=0;entryDx=0;entryDy=0;" edge="1" parent="1" source="u2r7xHkPpifheEgDaBbK-75" target="u2r7xHkPpifheEgDaBbK-50">
          <mxGeometry relative="1" as="geometry" />
        </mxCell>
        <mxCell id="u2r7xHkPpifheEgDaBbK-75" value="Show edit customer button" style="rounded=1;whiteSpace=wrap;html=1;" vertex="1" parent="1">
          <mxGeometry x="260" y="620" width="120" height="30" as="geometry" />
        </mxCell>
        <mxCell id="u2r7xHkPpifheEgDaBbK-76" style="edgeStyle=orthogonalEdgeStyle;rounded=0;orthogonalLoop=1;jettySize=auto;html=1;entryX=0.5;entryY=0;entryDx=0;entryDy=0;" edge="1" parent="1" source="u2r7xHkPpifheEgDaBbK-77" target="u2r7xHkPpifheEgDaBbK-78">
          <mxGeometry relative="1" as="geometry" />
        </mxCell>
        <mxCell id="u2r7xHkPpifheEgDaBbK-77" value="Show view customer button" style="rounded=1;whiteSpace=wrap;html=1;" vertex="1" parent="1">
          <mxGeometry x="260" y="910" width="120" height="30" as="geometry" />
        </mxCell>
        <mxCell id="u2r7xHkPpifheEgDaBbK-78" value="show customer detail" style="rounded=1;whiteSpace=wrap;html=1;" vertex="1" parent="1">
          <mxGeometry x="259.27" y="960" width="120" height="30" as="geometry" />
        </mxCell>
        <mxCell id="u2r7xHkPpifheEgDaBbK-79" style="edgeStyle=orthogonalEdgeStyle;rounded=0;orthogonalLoop=1;jettySize=auto;html=1;exitX=0.5;exitY=0.656;exitDx=0;exitDy=0;exitPerimeter=0;" edge="1" parent="1" source="u2r7xHkPpifheEgDaBbK-8">
          <mxGeometry relative="1" as="geometry">
            <mxPoint x="149.27" y="595" as="sourcePoint" />
            <mxPoint x="260" y="920" as="targetPoint" />
            <Array as="points">
              <mxPoint x="140" y="920" />
              <mxPoint x="259" y="920" />
            </Array>
          </mxGeometry>
        </mxCell>
        <mxCell id="u2r7xHkPpifheEgDaBbK-80" value="" style="edgeStyle=orthogonalEdgeStyle;rounded=0;orthogonalLoop=1;jettySize=auto;html=1;" edge="1" parent="1" source="u2r7xHkPpifheEgDaBbK-81" target="u2r7xHkPpifheEgDaBbK-83">
          <mxGeometry relative="1" as="geometry" />
        </mxCell>
        <mxCell id="u2r7xHkPpifheEgDaBbK-81" value="show delete button" style="whiteSpace=wrap;html=1;rounded=1;" vertex="1" parent="1">
          <mxGeometry x="257" y="1010" width="120" height="30" as="geometry" />
        </mxCell>
        <mxCell id="u2r7xHkPpifheEgDaBbK-82" value="" style="edgeStyle=orthogonalEdgeStyle;rounded=0;orthogonalLoop=1;jettySize=auto;html=1;" edge="1" parent="1" source="u2r7xHkPpifheEgDaBbK-83" target="u2r7xHkPpifheEgDaBbK-88">
          <mxGeometry relative="1" as="geometry" />
        </mxCell>
        <mxCell id="u2r7xHkPpifheEgDaBbK-83" value="confirmation" style="whiteSpace=wrap;html=1;rounded=1;" vertex="1" parent="1">
          <mxGeometry x="457" y="1010" width="120" height="30" as="geometry" />
        </mxCell>
        <mxCell id="u2r7xHkPpifheEgDaBbK-84" value="" style="edgeStyle=orthogonalEdgeStyle;rounded=0;orthogonalLoop=1;jettySize=auto;html=1;" edge="1" parent="1" source="u2r7xHkPpifheEgDaBbK-88">
          <mxGeometry relative="1" as="geometry">
            <Array as="points">
              <mxPoint x="447" y="1100" />
              <mxPoint x="447" y="1100" />
            </Array>
            <mxPoint x="377" y="1100" as="targetPoint" />
          </mxGeometry>
        </mxCell>
        <mxCell id="u2r7xHkPpifheEgDaBbK-85" value="no" style="edgeLabel;html=1;align=center;verticalAlign=middle;resizable=0;points=[];" vertex="1" connectable="0" parent="u2r7xHkPpifheEgDaBbK-84">
          <mxGeometry x="-0.6667" relative="1" as="geometry">
            <mxPoint x="-1" y="-2" as="offset" />
          </mxGeometry>
        </mxCell>
        <mxCell id="u2r7xHkPpifheEgDaBbK-86" value="" style="edgeStyle=orthogonalEdgeStyle;rounded=0;orthogonalLoop=1;jettySize=auto;html=1;" edge="1" parent="1" source="u2r7xHkPpifheEgDaBbK-88" target="u2r7xHkPpifheEgDaBbK-90">
          <mxGeometry relative="1" as="geometry" />
        </mxCell>
        <mxCell id="u2r7xHkPpifheEgDaBbK-87" value="yes" style="edgeLabel;html=1;align=center;verticalAlign=middle;resizable=0;points=[];" vertex="1" connectable="0" parent="u2r7xHkPpifheEgDaBbK-86">
          <mxGeometry x="-0.8632" y="-2" relative="1" as="geometry">
            <mxPoint x="7" y="-3" as="offset" />
          </mxGeometry>
        </mxCell>
        <mxCell id="u2r7xHkPpifheEgDaBbK-88" value="Valid ?" style="rhombus;whiteSpace=wrap;html=1;rounded=1;" vertex="1" parent="1">
          <mxGeometry x="487" y="1070" width="60" height="60" as="geometry" />
        </mxCell>
        <mxCell id="u2r7xHkPpifheEgDaBbK-89" value="" style="edgeStyle=orthogonalEdgeStyle;rounded=0;orthogonalLoop=1;jettySize=auto;html=1;exitX=0.5;exitY=1;exitDx=0;exitDy=0;" edge="1" parent="1" source="u2r7xHkPpifheEgDaBbK-90" target="u2r7xHkPpifheEgDaBbK-95">
          <mxGeometry relative="1" as="geometry">
            <mxPoint x="797" y="1030" as="sourcePoint" />
            <Array as="points">
              <mxPoint x="767" y="1170" />
            </Array>
          </mxGeometry>
        </mxCell>
        <mxCell id="u2r7xHkPpifheEgDaBbK-90" value="(soft) delete customer" style="whiteSpace=wrap;html=1;rounded=1;" vertex="1" parent="1">
          <mxGeometry x="717" y="1080" width="100" height="40" as="geometry" />
        </mxCell>
        <mxCell id="u2r7xHkPpifheEgDaBbK-91" value="" style="edgeStyle=orthogonalEdgeStyle;rounded=0;orthogonalLoop=1;jettySize=auto;html=1;" edge="1" parent="1" source="u2r7xHkPpifheEgDaBbK-95" target="u2r7xHkPpifheEgDaBbK-96">
          <mxGeometry relative="1" as="geometry" />
        </mxCell>
        <mxCell id="u2r7xHkPpifheEgDaBbK-92" value="fail" style="edgeLabel;html=1;align=center;verticalAlign=middle;resizable=0;points=[];" vertex="1" connectable="0" parent="u2r7xHkPpifheEgDaBbK-91">
          <mxGeometry x="-0.6727" y="-1" relative="1" as="geometry">
            <mxPoint as="offset" />
          </mxGeometry>
        </mxCell>
        <mxCell id="u2r7xHkPpifheEgDaBbK-93" value="" style="edgeStyle=orthogonalEdgeStyle;rounded=0;orthogonalLoop=1;jettySize=auto;html=1;exitX=0.5;exitY=1;exitDx=0;exitDy=0;" edge="1" parent="1" source="u2r7xHkPpifheEgDaBbK-95" target="u2r7xHkPpifheEgDaBbK-98">
          <mxGeometry relative="1" as="geometry">
            <mxPoint x="517" y="1060" as="sourcePoint" />
            <Array as="points">
              <mxPoint x="517" y="1220" />
            </Array>
          </mxGeometry>
        </mxCell>
        <mxCell id="u2r7xHkPpifheEgDaBbK-94" value="success" style="edgeLabel;html=1;align=center;verticalAlign=middle;resizable=0;points=[];" vertex="1" connectable="0" parent="u2r7xHkPpifheEgDaBbK-93">
          <mxGeometry x="-0.6718" relative="1" as="geometry">
            <mxPoint x="-34" y="-2" as="offset" />
          </mxGeometry>
        </mxCell>
        <mxCell id="u2r7xHkPpifheEgDaBbK-95" value="saved ?" style="rhombus;whiteSpace=wrap;html=1;rounded=1;" vertex="1" parent="1">
          <mxGeometry x="487" y="1140" width="60" height="60" as="geometry" />
        </mxCell>
        <mxCell id="u2r7xHkPpifheEgDaBbK-96" value="show error message" style="whiteSpace=wrap;html=1;rounded=1;" vertex="1" parent="1">
          <mxGeometry x="257" y="1150" width="120" height="40" as="geometry" />
        </mxCell>
        <mxCell id="u2r7xHkPpifheEgDaBbK-97" style="edgeStyle=orthogonalEdgeStyle;rounded=0;orthogonalLoop=1;jettySize=auto;html=1;" edge="1" parent="1" source="u2r7xHkPpifheEgDaBbK-98" target="u2r7xHkPpifheEgDaBbK-102">
          <mxGeometry relative="1" as="geometry" />
        </mxCell>
        <mxCell id="u2r7xHkPpifheEgDaBbK-98" value="Show&amp;nbsp; success message" style="whiteSpace=wrap;html=1;rounded=1;" vertex="1" parent="1">
          <mxGeometry x="257" y="1200" width="120" height="40" as="geometry" />
        </mxCell>
        <mxCell id="u2r7xHkPpifheEgDaBbK-99" value="" style="shape=sumEllipse;perimeter=ellipsePerimeter;whiteSpace=wrap;html=1;backgroundOutline=1;" vertex="1" parent="1">
          <mxGeometry x="347" y="1085" width="30" height="30" as="geometry" />
        </mxCell>
        <mxCell id="u2r7xHkPpifheEgDaBbK-100" style="edgeStyle=orthogonalEdgeStyle;rounded=0;orthogonalLoop=1;jettySize=auto;html=1;entryX=1;entryY=0.5;entryDx=0;entryDy=0;" edge="1" parent="1" target="u2r7xHkPpifheEgDaBbK-101">
          <mxGeometry relative="1" as="geometry">
            <mxPoint x="257" y="1170" as="sourcePoint" />
          </mxGeometry>
        </mxCell>
        <mxCell id="u2r7xHkPpifheEgDaBbK-101" value="" style="shape=sumEllipse;perimeter=ellipsePerimeter;whiteSpace=wrap;html=1;backgroundOutline=1;" vertex="1" parent="1">
          <mxGeometry x="187" y="1155" width="30" height="30" as="geometry" />
        </mxCell>
        <mxCell id="u2r7xHkPpifheEgDaBbK-102" value="" style="ellipse;html=1;shape=endState;fillColor=strokeColor;" vertex="1" parent="1">
          <mxGeometry x="187" y="1205" width="30" height="30" as="geometry" />
        </mxCell>
        <mxCell id="u2r7xHkPpifheEgDaBbK-103" style="edgeStyle=orthogonalEdgeStyle;rounded=0;orthogonalLoop=1;jettySize=auto;html=1;exitX=0.983;exitY=0.801;exitDx=0;exitDy=0;exitPerimeter=0;entryX=-0.008;entryY=0.359;entryDx=0;entryDy=0;entryPerimeter=0;" edge="1" parent="1" source="u2r7xHkPpifheEgDaBbK-8" target="u2r7xHkPpifheEgDaBbK-81">
          <mxGeometry relative="1" as="geometry">
            <mxPoint x="150.01999999999998" y="270.0000000000001" as="sourcePoint" />
            <mxPoint x="230" y="1030" as="targetPoint" />
            <Array as="points">
              <mxPoint x="130" y="262" />
              <mxPoint x="130" y="1021" />
            </Array>
          </mxGeometry>
        </mxCell>
      </root>
    </mxGraphModel>
  </diagram>
</mxfile>
